<mxfile host="app.diagrams.net" agent="Mozilla/5.0 (Windows NT 10.0; Win64; x64) AppleWebKit/537.36 (KHTML, like Gecko) Chrome/129.0.0.0 Safari/537.36" version="24.8.3">
  <diagram id="C5RBs43oDa-KdzZeNtuy" name="Page-1">
    <mxGraphModel dx="1235" dy="614" grid="1" gridSize="10" guides="1" tooltips="1" connect="1" arrows="1" fold="1" page="1" pageScale="1" pageWidth="827" pageHeight="1169" math="0" shadow="0">
      <root>
        <mxCell id="WIyWlLk6GJQsqaUBKTNV-0" />
        <mxCell id="WIyWlLk6GJQsqaUBKTNV-1" parent="WIyWlLk6GJQsqaUBKTNV-0" />
        <mxCell id="cBoZt8-I-QwEcaBruV8D-3" value="&lt;font style=&quot;vertical-align: inherit;&quot;&gt;&lt;font style=&quot;vertical-align: inherit;&quot;&gt;AddressBook&lt;/font&gt;&lt;/font&gt;" style="swimlane;fontStyle=0;childLayout=stackLayout;horizontal=1;startSize=26;fillColor=none;horizontalStack=0;resizeParent=1;resizeParentMax=0;resizeLast=0;collapsible=1;marginBottom=0;whiteSpace=wrap;html=1;" vertex="1" parent="WIyWlLk6GJQsqaUBKTNV-1">
          <mxGeometry x="304" y="100" width="156" height="170" as="geometry" />
        </mxCell>
        <mxCell id="cBoZt8-I-QwEcaBruV8D-4" value="&lt;font style=&quot;vertical-align: inherit;&quot;&gt;&lt;font style=&quot;vertical-align: inherit;&quot;&gt;+ add_record()&lt;/font&gt;&lt;/font&gt;" style="text;strokeColor=none;fillColor=none;align=left;verticalAlign=top;spacingLeft=4;spacingRight=4;overflow=hidden;rotatable=0;points=[[0,0.5],[1,0.5]];portConstraint=eastwest;whiteSpace=wrap;html=1;" vertex="1" parent="cBoZt8-I-QwEcaBruV8D-3">
          <mxGeometry y="26" width="156" height="26" as="geometry" />
        </mxCell>
        <mxCell id="cBoZt8-I-QwEcaBruV8D-5" value="&lt;font style=&quot;vertical-align: inherit;&quot;&gt;&lt;font style=&quot;vertical-align: inherit;&quot;&gt;+&amp;nbsp;find()&lt;/font&gt;&lt;/font&gt;" style="text;strokeColor=none;fillColor=none;align=left;verticalAlign=top;spacingLeft=4;spacingRight=4;overflow=hidden;rotatable=0;points=[[0,0.5],[1,0.5]];portConstraint=eastwest;whiteSpace=wrap;html=1;" vertex="1" parent="cBoZt8-I-QwEcaBruV8D-3">
          <mxGeometry y="52" width="156" height="26" as="geometry" />
        </mxCell>
        <mxCell id="cBoZt8-I-QwEcaBruV8D-6" value="&lt;font style=&quot;vertical-align: inherit;&quot;&gt;&lt;font style=&quot;vertical-align: inherit;&quot;&gt;+&amp;nbsp;delete()&lt;/font&gt;&lt;/font&gt;" style="text;strokeColor=none;fillColor=none;align=left;verticalAlign=top;spacingLeft=4;spacingRight=4;overflow=hidden;rotatable=0;points=[[0,0.5],[1,0.5]];portConstraint=eastwest;whiteSpace=wrap;html=1;" vertex="1" parent="cBoZt8-I-QwEcaBruV8D-3">
          <mxGeometry y="78" width="156" height="32" as="geometry" />
        </mxCell>
        <mxCell id="cBoZt8-I-QwEcaBruV8D-9" value="&lt;font style=&quot;vertical-align: inherit;&quot;&gt;&lt;font style=&quot;vertical-align: inherit;&quot;&gt;&amp;nbsp;+ get_upcoming_birthdays()&lt;/font&gt;&lt;/font&gt;" style="text;html=1;align=left;verticalAlign=middle;whiteSpace=wrap;rounded=0;" vertex="1" parent="cBoZt8-I-QwEcaBruV8D-3">
          <mxGeometry y="110" width="156" height="30" as="geometry" />
        </mxCell>
        <mxCell id="cBoZt8-I-QwEcaBruV8D-63" value="&amp;nbsp;+ data" style="text;html=1;align=left;verticalAlign=middle;whiteSpace=wrap;rounded=0;" vertex="1" parent="cBoZt8-I-QwEcaBruV8D-3">
          <mxGeometry y="140" width="156" height="30" as="geometry" />
        </mxCell>
        <mxCell id="cBoZt8-I-QwEcaBruV8D-12" value="Record" style="swimlane;fontStyle=0;childLayout=stackLayout;horizontal=1;startSize=26;fillColor=none;horizontalStack=0;resizeParent=1;resizeParentMax=0;resizeLast=0;collapsible=1;marginBottom=0;whiteSpace=wrap;html=1;" vertex="1" parent="WIyWlLk6GJQsqaUBKTNV-1">
          <mxGeometry x="304" y="350" width="140" height="254" as="geometry" />
        </mxCell>
        <mxCell id="cBoZt8-I-QwEcaBruV8D-13" value="+&amp;nbsp;name" style="text;strokeColor=none;fillColor=none;align=left;verticalAlign=top;spacingLeft=4;spacingRight=4;overflow=hidden;rotatable=0;points=[[0,0.5],[1,0.5]];portConstraint=eastwest;whiteSpace=wrap;html=1;" vertex="1" parent="cBoZt8-I-QwEcaBruV8D-12">
          <mxGeometry y="26" width="140" height="26" as="geometry" />
        </mxCell>
        <mxCell id="cBoZt8-I-QwEcaBruV8D-14" value="+&amp;nbsp;phones" style="text;strokeColor=none;fillColor=none;align=left;verticalAlign=top;spacingLeft=4;spacingRight=4;overflow=hidden;rotatable=0;points=[[0,0.5],[1,0.5]];portConstraint=eastwest;whiteSpace=wrap;html=1;" vertex="1" parent="cBoZt8-I-QwEcaBruV8D-12">
          <mxGeometry y="52" width="140" height="26" as="geometry" />
        </mxCell>
        <mxCell id="cBoZt8-I-QwEcaBruV8D-15" value="+&amp;nbsp;birthday" style="text;strokeColor=none;fillColor=none;align=left;verticalAlign=top;spacingLeft=4;spacingRight=4;overflow=hidden;rotatable=0;points=[[0,0.5],[1,0.5]];portConstraint=eastwest;whiteSpace=wrap;html=1;" vertex="1" parent="cBoZt8-I-QwEcaBruV8D-12">
          <mxGeometry y="78" width="140" height="26" as="geometry" />
        </mxCell>
        <mxCell id="cBoZt8-I-QwEcaBruV8D-20" value="&amp;nbsp;+&amp;nbsp;add_phone()" style="text;html=1;align=left;verticalAlign=middle;whiteSpace=wrap;rounded=0;" vertex="1" parent="cBoZt8-I-QwEcaBruV8D-12">
          <mxGeometry y="104" width="140" height="30" as="geometry" />
        </mxCell>
        <mxCell id="cBoZt8-I-QwEcaBruV8D-21" value="&amp;nbsp;+&amp;nbsp;remove_phone()" style="text;html=1;align=left;verticalAlign=middle;whiteSpace=wrap;rounded=0;" vertex="1" parent="cBoZt8-I-QwEcaBruV8D-12">
          <mxGeometry y="134" width="140" height="30" as="geometry" />
        </mxCell>
        <mxCell id="cBoZt8-I-QwEcaBruV8D-22" value="&amp;nbsp;+&amp;nbsp;edit_phone()" style="text;html=1;align=left;verticalAlign=middle;whiteSpace=wrap;rounded=0;" vertex="1" parent="cBoZt8-I-QwEcaBruV8D-12">
          <mxGeometry y="164" width="140" height="30" as="geometry" />
        </mxCell>
        <mxCell id="cBoZt8-I-QwEcaBruV8D-24" value="&amp;nbsp;+&amp;nbsp;add_birthday()" style="text;html=1;align=left;verticalAlign=middle;whiteSpace=wrap;rounded=0;" vertex="1" parent="cBoZt8-I-QwEcaBruV8D-12">
          <mxGeometry y="194" width="140" height="30" as="geometry" />
        </mxCell>
        <mxCell id="cBoZt8-I-QwEcaBruV8D-23" value="&amp;nbsp;+&amp;nbsp;find_phone()" style="text;html=1;align=left;verticalAlign=middle;whiteSpace=wrap;rounded=0;" vertex="1" parent="cBoZt8-I-QwEcaBruV8D-12">
          <mxGeometry y="224" width="140" height="30" as="geometry" />
        </mxCell>
        <mxCell id="cBoZt8-I-QwEcaBruV8D-25" value="Birthday" style="swimlane;fontStyle=0;childLayout=stackLayout;horizontal=1;startSize=26;fillColor=none;horizontalStack=0;resizeParent=1;resizeParentMax=0;resizeLast=0;collapsible=1;marginBottom=0;whiteSpace=wrap;html=1;" vertex="1" parent="WIyWlLk6GJQsqaUBKTNV-1">
          <mxGeometry x="250" y="700" width="140" height="20" as="geometry" />
        </mxCell>
        <mxCell id="cBoZt8-I-QwEcaBruV8D-29" value="Phone" style="swimlane;fontStyle=0;childLayout=stackLayout;horizontal=1;startSize=26;fillColor=none;horizontalStack=0;resizeParent=1;resizeParentMax=0;resizeLast=0;collapsible=1;marginBottom=0;whiteSpace=wrap;html=1;align=center;" vertex="1" parent="WIyWlLk6GJQsqaUBKTNV-1">
          <mxGeometry x="530" y="640" width="140" height="56" as="geometry" />
        </mxCell>
        <mxCell id="cBoZt8-I-QwEcaBruV8D-59" value="&amp;nbsp; -&amp;nbsp; _validate_phone()" style="text;html=1;align=left;verticalAlign=middle;resizable=0;points=[];autosize=1;strokeColor=none;fillColor=none;" vertex="1" parent="cBoZt8-I-QwEcaBruV8D-29">
          <mxGeometry y="26" width="140" height="30" as="geometry" />
        </mxCell>
        <mxCell id="cBoZt8-I-QwEcaBruV8D-33" value="" style="endArrow=open;endFill=1;endSize=12;html=1;rounded=0;exitX=0.5;exitY=0;exitDx=0;exitDy=0;entryX=0.25;entryY=1;entryDx=0;entryDy=0;" edge="1" parent="WIyWlLk6GJQsqaUBKTNV-1" source="cBoZt8-I-QwEcaBruV8D-25" target="cBoZt8-I-QwEcaBruV8D-23">
          <mxGeometry width="160" relative="1" as="geometry">
            <mxPoint x="140" y="640" as="sourcePoint" />
            <mxPoint x="300" y="640" as="targetPoint" />
          </mxGeometry>
        </mxCell>
        <mxCell id="cBoZt8-I-QwEcaBruV8D-34" value="" style="endArrow=open;endFill=1;endSize=12;html=1;rounded=0;exitX=0.5;exitY=0;exitDx=0;exitDy=0;entryX=1;entryY=0.5;entryDx=0;entryDy=0;" edge="1" parent="WIyWlLk6GJQsqaUBKTNV-1" source="cBoZt8-I-QwEcaBruV8D-29" target="cBoZt8-I-QwEcaBruV8D-23">
          <mxGeometry width="160" relative="1" as="geometry">
            <mxPoint x="560" y="640" as="sourcePoint" />
            <mxPoint x="720" y="640" as="targetPoint" />
          </mxGeometry>
        </mxCell>
        <mxCell id="cBoZt8-I-QwEcaBruV8D-42" value="" style="endArrow=block;endSize=16;endFill=0;html=1;rounded=0;exitX=1;exitY=0;exitDx=0;exitDy=0;entryX=0;entryY=0.5;entryDx=0;entryDy=0;" edge="1" parent="WIyWlLk6GJQsqaUBKTNV-1" source="cBoZt8-I-QwEcaBruV8D-25" target="cBoZt8-I-QwEcaBruV8D-58">
          <mxGeometry width="160" relative="1" as="geometry">
            <mxPoint x="590" y="540" as="sourcePoint" />
            <mxPoint x="650" y="490" as="targetPoint" />
          </mxGeometry>
        </mxCell>
        <mxCell id="cBoZt8-I-QwEcaBruV8D-43" value="" style="endArrow=block;endSize=16;endFill=0;html=1;rounded=0;exitX=0.491;exitY=0.877;exitDx=0;exitDy=0;exitPerimeter=0;entryX=0.5;entryY=0;entryDx=0;entryDy=0;" edge="1" parent="WIyWlLk6GJQsqaUBKTNV-1" source="cBoZt8-I-QwEcaBruV8D-46" target="cBoZt8-I-QwEcaBruV8D-54">
          <mxGeometry width="160" relative="1" as="geometry">
            <mxPoint x="580" y="570" as="sourcePoint" />
            <mxPoint x="725" y="444" as="targetPoint" />
          </mxGeometry>
        </mxCell>
        <mxCell id="cBoZt8-I-QwEcaBruV8D-44" value="" style="endArrow=block;endSize=16;endFill=0;html=1;rounded=0;exitX=0.7;exitY=-0.06;exitDx=0;exitDy=0;exitPerimeter=0;entryX=0.21;entryY=1.046;entryDx=0;entryDy=0;entryPerimeter=0;" edge="1" parent="WIyWlLk6GJQsqaUBKTNV-1" source="cBoZt8-I-QwEcaBruV8D-29" target="cBoZt8-I-QwEcaBruV8D-58">
          <mxGeometry width="160" relative="1" as="geometry">
            <mxPoint x="610" y="610" as="sourcePoint" />
            <mxPoint x="664.3800000000001" y="539.1959999999999" as="targetPoint" />
          </mxGeometry>
        </mxCell>
        <mxCell id="cBoZt8-I-QwEcaBruV8D-45" value="Name" style="swimlane;fontStyle=1;align=center;verticalAlign=top;childLayout=stackLayout;horizontal=1;startSize=26;horizontalStack=0;resizeParent=1;resizeParentMax=0;resizeLast=0;collapsible=1;marginBottom=0;whiteSpace=wrap;html=1;" vertex="1" parent="WIyWlLk6GJQsqaUBKTNV-1">
          <mxGeometry x="645" y="238" width="160" height="52" as="geometry" />
        </mxCell>
        <mxCell id="cBoZt8-I-QwEcaBruV8D-46" value="+ value" style="text;strokeColor=none;fillColor=none;align=left;verticalAlign=top;spacingLeft=4;spacingRight=4;overflow=hidden;rotatable=0;points=[[0,0.5],[1,0.5]];portConstraint=eastwest;whiteSpace=wrap;html=1;" vertex="1" parent="cBoZt8-I-QwEcaBruV8D-45">
          <mxGeometry y="26" width="160" height="26" as="geometry" />
        </mxCell>
        <mxCell id="cBoZt8-I-QwEcaBruV8D-54" value="Field" style="swimlane;fontStyle=0;childLayout=stackLayout;horizontal=1;startSize=26;fillColor=none;horizontalStack=0;resizeParent=1;resizeParentMax=0;resizeLast=0;collapsible=1;marginBottom=0;whiteSpace=wrap;html=1;" vertex="1" parent="WIyWlLk6GJQsqaUBKTNV-1">
          <mxGeometry x="655" y="434" width="140" height="78" as="geometry" />
        </mxCell>
        <mxCell id="cBoZt8-I-QwEcaBruV8D-55" value="+&amp;nbsp;value" style="text;strokeColor=none;fillColor=none;align=left;verticalAlign=top;spacingLeft=4;spacingRight=4;overflow=hidden;rotatable=0;points=[[0,0.5],[1,0.5]];portConstraint=eastwest;whiteSpace=wrap;html=1;" vertex="1" parent="cBoZt8-I-QwEcaBruV8D-54">
          <mxGeometry y="26" width="140" height="26" as="geometry" />
        </mxCell>
        <mxCell id="cBoZt8-I-QwEcaBruV8D-58" value="+ __str__" style="text;strokeColor=none;fillColor=none;align=left;verticalAlign=top;spacingLeft=4;spacingRight=4;overflow=hidden;rotatable=0;points=[[0,0.5],[1,0.5]];portConstraint=eastwest;whiteSpace=wrap;html=1;" vertex="1" parent="cBoZt8-I-QwEcaBruV8D-54">
          <mxGeometry y="52" width="140" height="26" as="geometry" />
        </mxCell>
        <mxCell id="cBoZt8-I-QwEcaBruV8D-60" value="" style="endArrow=classic;html=1;rounded=0;exitX=0.5;exitY=0;exitDx=0;exitDy=0;entryX=0.015;entryY=1.018;entryDx=0;entryDy=0;entryPerimeter=0;" edge="1" parent="WIyWlLk6GJQsqaUBKTNV-1" source="cBoZt8-I-QwEcaBruV8D-29" target="cBoZt8-I-QwEcaBruV8D-46">
          <mxGeometry width="50" height="50" relative="1" as="geometry">
            <mxPoint x="540" y="450" as="sourcePoint" />
            <mxPoint x="590" y="400" as="targetPoint" />
          </mxGeometry>
        </mxCell>
        <mxCell id="cBoZt8-I-QwEcaBruV8D-65" value="" style="endArrow=open;html=1;endSize=12;startArrow=diamondThin;startSize=14;startFill=1;edgeStyle=orthogonalEdgeStyle;align=left;verticalAlign=bottom;rounded=0;exitX=0.5;exitY=0;exitDx=0;exitDy=0;entryX=0.5;entryY=1;entryDx=0;entryDy=0;" edge="1" parent="WIyWlLk6GJQsqaUBKTNV-1" source="cBoZt8-I-QwEcaBruV8D-12" target="cBoZt8-I-QwEcaBruV8D-63">
          <mxGeometry x="-1" y="3" relative="1" as="geometry">
            <mxPoint x="380" y="250" as="sourcePoint" />
            <mxPoint x="540" y="250" as="targetPoint" />
          </mxGeometry>
        </mxCell>
      </root>
    </mxGraphModel>
  </diagram>
</mxfile>
